<svg width="339" height="83" viewBox="0 0 339 83" fill="none" xmlns="http://www.w3.org/2000/svg">
<g clip-path="url(#clip0_214_14)">
<path d="M84.3765 82.9464H7.15055C3.20774 82.9464 0 79.7386 0 75.7958V28.6022C0 24.6594 3.20774 21.4517 7.15055 21.4517H84.3765C88.3193 21.4517 91.527 24.6594 91.527 28.6022V75.7958C91.527 79.7386 88.3193 82.9464 84.3765 82.9464ZM7.15055 24.3119C4.78515 24.3119 2.86022 26.2368 2.86022 28.6022V75.7958C2.86022 78.1612 4.78515 80.0862 7.15055 80.0862H84.3765C86.7419 80.0862 88.6668 78.1612 88.6668 75.7958V28.6022C88.6668 26.2368 86.7419 24.3119 84.3765 24.3119H7.15055Z" fill="#8D949E"/>
<path d="M8.58065 24.3118C7.7898 24.3118 7.15054 23.6726 7.15054 22.8817V11.4409C7.15054 10.65 7.7898 10.0107 8.58065 10.0107C9.3715 10.0107 10.0108 10.65 10.0108 11.4409V22.8817C10.0108 23.6726 9.3715 24.3118 8.58065 24.3118Z" fill="#8D949E"/>
<path d="M82.9463 24.3119C82.1555 24.3119 81.5162 23.6726 81.5162 22.8818V17.1613C81.5162 16.3705 82.1555 15.7312 82.9463 15.7312C83.7372 15.7312 84.3765 16.3705 84.3765 17.1613V22.8818C84.3765 23.6726 83.7372 24.3119 82.9463 24.3119Z" fill="#8D949E"/>
<path d="M82.9463 18.5914H28.6022C27.8113 18.5914 27.1721 17.9522 27.1721 17.1613C27.1721 16.3705 27.8113 15.7312 28.6022 15.7312H82.9463C83.7372 15.7312 84.3764 16.3705 84.3764 17.1613C84.3764 17.9522 83.7372 18.5914 82.9463 18.5914Z" fill="#8D949E"/>
<path d="M28.6036 18.5914C28.1675 18.5914 27.7399 18.3941 27.4581 18.0194L23.1678 12.2989C22.693 11.6683 22.8217 10.7716 23.4538 10.2982C24.0845 9.82342 24.9812 9.9507 25.4545 10.5842L29.7449 16.3047C30.2197 16.9354 30.091 17.832 29.4588 18.3054C29.2029 18.4985 28.9025 18.5914 28.6036 18.5914Z" fill="#8D949E"/>
<path d="M24.3119 12.871H8.58065C7.7898 12.871 7.15054 12.2317 7.15054 11.4409C7.15054 10.65 7.7898 10.0107 8.58065 10.0107H24.3119C25.1027 10.0107 25.742 10.65 25.742 11.4409C25.742 12.2317 25.1027 12.871 24.3119 12.871Z" fill="#8D949E"/>
<path d="M82.9464 14.301H25.3845C24.5936 14.301 23.9543 13.6618 23.9543 12.8709C23.9543 12.0801 24.5936 11.4408 25.3845 11.4408H82.9464C83.7372 11.4408 84.3765 12.0801 84.3765 12.8709C84.3765 13.6618 83.7372 14.301 82.9464 14.301Z" fill="#8D949E"/>
<path d="M82.9463 18.5913C82.1555 18.5913 81.5162 17.9521 81.5162 17.1612V12.8709C81.5162 12.0801 82.1555 11.4408 82.9463 11.4408C83.7372 11.4408 84.3765 12.0801 84.3765 12.8709V17.1612C84.3765 17.9521 83.7372 18.5913 82.9463 18.5913Z" fill="#8D949E"/>
<path d="M11.4409 12.871C10.65 12.871 10.0108 12.2317 10.0108 11.4409V1.43011C10.0108 0.639259 10.65 0 11.4409 0C12.2317 0 12.871 0.639259 12.871 1.43011V11.4409C12.871 12.2317 12.2317 12.871 11.4409 12.871Z" fill="#8D949E"/>
<path d="M80.0861 14.3011C79.2953 14.3011 78.656 13.6619 78.656 12.871V7.15057C78.656 6.35972 79.2953 5.72046 80.0861 5.72046C80.877 5.72046 81.5162 6.35972 81.5162 7.15057V12.871C81.5162 13.6619 80.877 14.3011 80.0861 14.3011Z" fill="#8D949E"/>
<path d="M80.0861 8.58068H31.4624C30.6715 8.58068 30.0323 7.94142 30.0323 7.15057C30.0323 6.35972 30.6715 5.72046 31.4624 5.72046H80.0861C80.877 5.72046 81.5162 6.35972 81.5162 7.15057C81.5162 7.94142 80.877 8.58068 80.0861 8.58068Z" fill="#8D949E"/>
<path d="M31.4639 8.58068C31.0277 8.58068 30.6001 8.38333 30.3184 8.00864L26.028 2.2882C25.5532 1.65752 25.6819 0.760841 26.314 0.287475C26.9433 -0.187321 27.8414 -0.0600415 28.3148 0.573497L32.6051 6.29394C33.0799 6.92461 32.9512 7.82129 32.3191 8.29466C32.0631 8.48772 31.7628 8.58068 31.4639 8.58068Z" fill="#8D949E"/>
<path d="M27.1721 2.86022H11.4409C10.65 2.86022 10.0108 2.22096 10.0108 1.43011C10.0108 0.639259 10.65 0 11.4409 0H27.1721C27.9629 0 28.6022 0.639259 28.6022 1.43011C28.6022 2.22096 27.9629 2.86022 27.1721 2.86022Z" fill="#8D949E"/>
<path d="M80.0862 4.29027H28.2447C27.4538 4.29027 26.8146 3.65101 26.8146 2.86016C26.8146 2.06931 27.4538 1.43005 28.2447 1.43005H80.0862C80.877 1.43005 81.5163 2.06931 81.5163 2.86016C81.5163 3.65101 80.877 4.29027 80.0862 4.29027Z" fill="#8D949E"/>
<path d="M80.0861 8.5806C79.2953 8.5806 78.656 7.94134 78.656 7.15049V2.86016C78.656 2.06931 79.2953 1.43005 80.0861 1.43005C80.877 1.43005 81.5162 2.06931 81.5162 2.86016V7.15049C81.5162 7.94134 80.877 8.5806 80.0861 8.5806Z" fill="#8D949E"/>
<path d="M37.1828 51.484C36.392 51.484 35.7527 50.8447 35.7527 50.0539C35.7527 49.2645 35.112 48.6238 34.3226 48.6238C33.5332 48.6238 32.8925 49.2645 32.8925 50.0539C32.8925 50.8447 32.2532 51.484 31.4624 51.484C30.6715 51.484 30.0323 50.8447 30.0323 50.0539C30.0323 47.6885 31.9572 45.7635 34.3226 45.7635C36.688 45.7635 38.6129 47.6885 38.6129 50.0539C38.6129 50.8447 37.9737 51.484 37.1828 51.484Z" fill="#8D949E"/>
<path d="M60.0646 51.484C59.2738 51.484 58.6345 50.8447 58.6345 50.0539C58.6345 49.2645 57.9938 48.6238 57.2044 48.6238C56.415 48.6238 55.7743 49.2645 55.7743 50.0539C55.7743 50.8447 55.135 51.484 54.3442 51.484C53.5533 51.484 52.9141 50.8447 52.9141 50.0539C52.9141 47.6885 54.839 45.7635 57.2044 45.7635C59.5698 45.7635 61.4947 47.6885 61.4947 50.0539C61.4947 50.8447 60.8555 51.484 60.0646 51.484Z" fill="#8D949E"/>
<path d="M57.2044 60.0647C56.4136 60.0647 55.7743 59.4254 55.7743 58.6346C55.7743 57.8437 56.4136 57.2045 57.2044 57.2045C57.9938 57.2045 58.6345 56.5638 58.6345 55.7743C58.6345 54.9835 59.2738 54.3442 60.0646 54.3442C60.8555 54.3442 61.4947 54.9835 61.4947 55.7743C61.4947 58.1397 59.5698 60.0647 57.2044 60.0647Z" fill="#8D949E"/>
<path d="M34.3226 60.0647C31.9572 60.0647 30.0323 58.1397 30.0323 55.7743C30.0323 54.9835 30.6715 54.3442 31.4624 54.3442C32.2532 54.3442 32.8925 54.9835 32.8925 55.7743C32.8925 56.5638 33.5332 57.2045 34.3226 57.2045C35.1135 57.2045 35.7527 57.8437 35.7527 58.6346C35.7527 59.4254 35.1135 60.0647 34.3226 60.0647Z" fill="#8D949E"/>
<path d="M31.4624 57.2044C30.6715 57.2044 30.0323 56.5652 30.0323 55.7743V50.0539C30.0323 49.263 30.6715 48.6238 31.4624 48.6238C32.2532 48.6238 32.8925 49.263 32.8925 50.0539V55.7743C32.8925 56.5652 32.2532 57.2044 31.4624 57.2044Z" fill="#8D949E"/>
<path d="M60.0646 57.2044C59.2737 57.2044 58.6345 56.5652 58.6345 55.7743V50.0539C58.6345 49.263 59.2737 48.6238 60.0646 48.6238C60.8554 48.6238 61.4947 49.263 61.4947 50.0539V55.7743C61.4947 56.5652 60.8554 57.2044 60.0646 57.2044Z" fill="#8D949E"/>
<path d="M57.2044 60.0647H34.3226C33.5318 60.0647 32.8925 59.4254 32.8925 58.6346C32.8925 57.8437 33.5318 57.2045 34.3226 57.2045H57.2044C57.9952 57.2045 58.6345 57.8437 58.6345 58.6346C58.6345 59.4254 57.9952 60.0647 57.2044 60.0647Z" fill="#8D949E"/>
<path d="M54.3442 54.3442H37.1829C36.392 54.3442 35.7527 53.705 35.7527 52.9141C35.7527 52.1233 36.392 51.484 37.1829 51.484H54.3442C55.135 51.484 55.7743 52.1233 55.7743 52.9141C55.7743 53.705 55.135 54.3442 54.3442 54.3442Z" fill="#8D949E"/>
<path d="M54.3442 54.3442C53.5533 54.3442 52.9141 53.705 52.9141 52.9141V50.0539C52.9141 49.263 53.5533 48.6238 54.3442 48.6238C55.135 48.6238 55.7743 49.263 55.7743 50.0539V52.9141C55.7743 53.705 55.135 54.3442 54.3442 54.3442Z" fill="#8D949E"/>
<path d="M37.1829 54.3442C36.392 54.3442 35.7527 53.705 35.7527 52.9141V50.0539C35.7527 49.263 36.392 48.6238 37.1829 48.6238C37.9737 48.6238 38.613 49.263 38.613 50.0539V52.9141C38.613 53.705 37.9737 54.3442 37.1829 54.3442Z" fill="#8D949E"/>
<path d="M109.832 18.3447H123.87V75.6193H109.832V18.3447ZM160.182 30.4173V43.4257H147.08V52.2228C147.08 59.4289 151.853 63.0788 158.778 63.0788C159.62 63.0788 160.369 62.9852 161.024 62.8916C161.679 62.798 162.241 62.7044 162.896 62.6108V75.6193C162.053 75.7129 161.398 75.9 160.93 75.9936C160.369 76.0872 159.433 76.0872 158.216 76.0872C144.085 76.0872 133.042 66.4479 133.042 52.2228V17.596H147.08V30.4173H160.182ZM226.908 28.8263H240.946C244.035 36.0324 244.222 44.4552 244.222 52.2228C244.222 65.6992 235.799 76.0872 222.136 76.0872C215.491 76.0872 210.157 72.9053 206.787 67.1966C203.512 72.8117 197.99 76.0872 191.439 76.0872C178.15 76.0872 169.353 67.0094 169.353 54.0945V28.8263H183.391V54.0945C183.391 59.3353 185.918 63.0788 191.439 63.0788C197.055 63.0788 199.769 59.4289 199.769 54.0945V28.8263H213.806V54.0945C213.806 59.4289 216.52 63.0788 222.136 63.0788C228.312 63.0788 230.184 57.4636 230.184 52.2228C230.184 44.9231 229.81 35.6581 226.908 28.8263ZM250.398 28.8263H264.436V75.6193H250.398V28.8263ZM257.417 24.4278C252.645 24.4278 249.275 21.0587 249.275 16.2858C249.275 11.4193 252.645 8.23743 257.417 8.23743C262.284 8.23743 265.466 11.4193 265.466 16.2858C265.466 21.2459 262.377 24.4278 257.417 24.4278ZM301.122 28.8263H315.16V33.5056C315.16 40.6182 312.727 47.4499 307.486 52.3164L319.839 75.6193H302.526L288.02 47.9179V75.6193H273.982V10.1091H288.02V45.391H290.173C297.753 45.391 301.122 40.3374 301.122 33.412V28.8263ZM323.583 28.8263H337.621V75.6193H323.583V28.8263ZM330.602 24.4278C325.829 24.4278 322.46 21.0587 322.46 16.2858C322.46 11.4193 325.829 8.23743 330.602 8.23743C335.468 8.23743 338.65 11.4193 338.65 16.2858C338.65 21.2459 335.562 24.4278 330.602 24.4278Z" fill="#8D949E" />
</g>
<defs>
<clipPath id="clip0_214_14">
<rect width="338.65" height="82.9464" fill="white"/>
</clipPath>
</defs>
</svg>
