
<svg class="site-header-logo_icon" width="90" height="52" viewBox="0 0 90 52" fill="none" xmlns="http://www.w3.org/2000/svg"><path d="M35.771 39.003 38.8 22.794l3.081 16.209h5.49L52.165 17h-3.863L44.69 34.935l-3.544-17.82h-4.64l-3.65 17.82L29.35 17h-3.862l4.794 22.003zM60 17h-4v22h4zm29 0h-4v22h4zm-31-2a2.5 2.5 0 1 0 0-5 2.5 2.5 0 0 0 0 5m29 0a2.5 2.5 0 1 0 0-5 2.5 2.5 0 0 0 0 5M64 6.967V39h3.985v-8.436l1.544-1.353 7.6 9.788H82l-9.687-12.147L82 17h-5.142l-8.873 8.81V6z" fill="#8D949E"/><path d="M4.476 16.457c-1.803 1.017-2.412 2.243-2.412 4.854v17.701L7 39V15c-1 .5-1.667.985-2.524 1.457" fill="#3462AB"/><path d="M3.886 13.591a17 17 0 0 1 1.574-.852c.707-.347 1.315-.647 1.767-1.137 2.22-2.404 1.656-6.096 1.631-6.252l-.062-.381-.18.342c-.009.018-1.01 1.905-2.765 3.215a20 20 0 0 1-.732.506c-.528.356-1.187.798-1.98 1.42C.53 12.498.5 15.884.5 16.027v.364l.23-.283c.003-.006.897-1.098 3.156-2.517m-.553-6.849c1.196-.75 2.045-1.335 2.597-1.929C7.66 2.94 7.198.465 7.176.361L7.106 0l-.17.325C6.93.337 6.17 1.779 4.812 2.791a13 13 0 0 1-.53.368c-.418.282-.947.637-1.56 1.117C.705 5.86.68 8.482.68 8.593v.365l.23-.285c.004-.005.67-.83 2.423-1.931" fill="#4ED401"/><path d="M17 15h4v4h-4v12.5c0 2.263 2.117 2.833 4 3.212V39c-3.864 0-9-1.48-9-7V19H9v-4h3l.001-4.244h.003c.05-2.388.852-3.55 2.58-4.528 1.12-.615 1.836-.995 2.226-1.2L17 4.93z" fill="#3462AB"/></svg>