<svg xmlns:xlink="http://www.w3.org/1999/xlink" class="icon-box_icon" width="72" height="72" xmlns="http://www.w3.org/2000/svg" viewBox="0 0 72 72" fill="none">
  <path fill-rule="evenodd" clip-rule="evenodd" d="M15.75 15.75H35.6486H35.676H55.5546L54.1201 31.8339L53.9262 33.9678L52.0588 54.8883L51.9393 56.2308L35.676 60.7382V60.7398L35.6395 60.75L19.3617 56.2312L18.2484 43.754H21.925H26.2254L26.7911 50.0917L35.6412 52.4814L35.6486 52.4795V52.4784L44.5114 50.0863L45.4338 39.7803H35.6486V39.779H17.8934L17.1811 31.8326H35.6761V31.8339H46.1229L46.846 23.6966H35.676H35.6486H16.4724L15.75 15.75Z" fill="url(&quot;#yagahlwcmo-paint0_linear_5796_96384&quot;)"></path>
  <defs>
    <linearGradient id="yagahlwcmo-paint0_linear_5796_96384" x1="60.8066" y1="49.9688" x2="23.0168" y2="62.277" gradientUnits="userSpaceOnUse">
      <stop offset="0.0543394" stop-color="white"></stop>
      <stop offset="1" stop-color="white" stop-opacity="0.4"></stop>
    </linearGradient>
  <linearGradient id="yagahlwcmo-paint0_linear_5796_96384" x1="60.8066" y1="49.9688" x2="23.0168" y2="62.277" gradientUnits="userSpaceOnUse">
      <stop offset="0.0543394" stop-color="white"></stop>
      <stop offset="1" stop-color="white" stop-opacity="0.4"></stop>
    </linearGradient></defs>
</svg>