<svg xmlns:xlink="http://www.w3.org/1999/xlink" class="icon-box_icon" width="72" height="72" xmlns="http://www.w3.org/2000/svg" viewBox="0 0 72 72" fill="none">
  <path d="M58.4607 33.559C58.7777 34.5946 58.9352 35.8942 58.9352 37.4781C58.9352 39.0619 58.6586 40.7673 58.1074 42.5948C56.6091 46.7981 54.3214 47.3465 51.2441 47.3465H35.381L35.3103 50.981H47.5065L47.5771 53.9051C47.5771 56.5245 45.7618 58.3926 42.1353 59.4891C38.1109 60.6059 34.2866 60.6059 30.6581 59.4891C26.7933 58.3926 26.2238 56.5042 26.2238 53.8848V47.4682V43.5291C26.2238 40.9909 26.1613 39.3867 28.7641 38.676C29.3961 38.5136 30.3748 38.2698 32.6248 38.2698C36.3065 38.2698 39.9921 38.3104 43.672 38.3104C45.3298 38.0871 46.6402 37.2344 47.8133 35.9348C48.3868 35.3054 48.0315 32.9295 48.0315 30.9395V26.4114V26.0664H51.2441C52.9019 26.0664 54.3799 26.7566 55.6823 28.1374C56.9827 29.5384 57.9095 31.3254 58.4607 33.559ZM42.3715 52.5852C40.952 52.5852 40.2412 53.2756 40.2412 54.6158C40.2412 55.2452 40.4392 55.7732 40.8329 56.159C41.2267 56.5651 41.7395 56.7479 42.3715 56.7479C43.7123 56.7479 44.3827 56.0371 44.3827 54.6158C44.3827 53.2756 43.7123 52.5852 42.3715 52.5852Z" fill="url(&quot;#ijyvcyjscf-paint0_linear_7075_120106&quot;)" fill-opacity="0.7"></path>
  <path d="M28.7614 36.6361C27.1056 36.9609 26.3322 36.9098 25.3125 38.25C24.6522 39.1028 24.4039 41.753 24.4039 43.418V48.9006H21.1893C19.4548 48.9006 17.9161 48.129 16.5753 46.5655C15.2345 45.0222 14.3279 43.0729 13.8554 40.6768C13.6172 39.6615 13.5 38.5854 13.5 37.4686V37.3467C13.5 34.179 14.2492 31.4988 15.7475 29.3261C17.2457 27.1331 19.1175 27.3563 21.2457 27.3563H35.3076V23.7218H24.7673L24.8581 20.6963C24.8581 19.0313 25.2136 17.7925 25.9223 16.9599C26.6331 16.1071 28.0909 15.4981 30.3 15.1123C32.3515 14.7874 34.1264 14.625 35.6247 14.625C38.3062 14.625 40.4748 14.7874 42.1326 15.1123C43.6308 15.3357 43.9339 15.2972 45 16.3125C46.0641 17.3481 46.2115 19.2749 46.2115 20.6963V31.1738C46.2115 33.8541 46.2721 35.5801 43.6693 36.2908C43.0393 36.4329 42.5263 36.5141 42.1326 36.5141C37.7631 36.5141 32.3123 36.2908 28.7614 36.6361ZM30.0637 22.1176C31.4045 22.1176 32.0749 21.4475 32.0749 20.1074C32.0749 18.6657 31.4045 17.9549 30.0637 17.9549C29.4317 17.9549 28.9209 18.158 28.5251 18.5641C28.1314 18.9499 27.9334 19.4779 27.9334 20.1074C27.9334 21.4475 28.6442 22.1176 30.0637 22.1176Z" fill="#FFFFFF"></path>
  <defs>
    <linearGradient id="ijyvcyjscf-paint0_linear_7075_120106" x1="34.9687" y1="60.373" x2="34.9687" y2="21.9355" gradientUnits="userSpaceOnUse">
      <stop stop-color="white"></stop>
      <stop offset="1" stop-color="white" stop-opacity="0.4"></stop>
    </linearGradient>
  <linearGradient id="ijyvcyjscf-paint0_linear_7075_120106" x1="34.9687" y1="60.373" x2="34.9687" y2="21.9355" gradientUnits="userSpaceOnUse">
      <stop stop-color="white"></stop>
      <stop offset="1" stop-color="white" stop-opacity="0.4"></stop>
    </linearGradient></defs>
</svg>