<svg xmlns:xlink="http://www.w3.org/1999/xlink" class="icon-box_icon" width="72" height="72" xmlns="http://www.w3.org/2000/svg" viewBox="0 0 72 72" fill="none">
  <path d="M27.9328 15.8519H34.0756L33.9843 57.7667L16.4797 52.1491L15.75 44.8075L28.047 48.21C28.047 48.21 28.047 15.7377 27.9328 15.8519Z" fill="url(&quot;#arraqrxhav-paint0_linear_5796_96386&quot;)"></path>
  <path d="M36.4971 15.7502H56.2499L55.7704 22.795L42.4572 22.9092L42.5143 34.19L54.8227 32.7057L53.4525 52.6983L36.2002 57.6537V49.7754L48.4401 46.6697L48.8626 40.3442L36.5085 42.5479C36.4971 42.5479 36.5884 15.6589 36.4971 15.7502Z" fill="url(&quot;#arraqrxhav-paint1_linear_5796_96386&quot;)"></path>
  <defs>
    <linearGradient id="arraqrxhav-paint0_linear_5796_96386" x1="34.125" y1="38.9998" x2="15.75" y2="39.1869" gradientUnits="userSpaceOnUse">
      <stop offset="0.0543394" stop-color="white"></stop>
      <stop offset="1" stop-color="white" stop-opacity="0.4"></stop>
    </linearGradient>
    <linearGradient id="arraqrxhav-paint1_linear_5796_96386" x1="36.1874" y1="36.75" x2="56.2495" y2="35.8047" gradientUnits="userSpaceOnUse">
      <stop offset="0.0543394" stop-color="white"></stop>
      <stop offset="0.80334" stop-color="white" stop-opacity="0.4"></stop>
    </linearGradient>
  <linearGradient id="arraqrxhav-paint0_linear_5796_96386" x1="34.125" y1="38.9998" x2="15.75" y2="39.1869" gradientUnits="userSpaceOnUse">
      <stop offset="0.0543394" stop-color="white"></stop>
      <stop offset="1" stop-color="white" stop-opacity="0.4"></stop>
    </linearGradient><linearGradient id="arraqrxhav-paint1_linear_5796_96386" x1="36.1874" y1="36.75" x2="56.2495" y2="35.8047" gradientUnits="userSpaceOnUse">
      <stop offset="0.0543394" stop-color="white"></stop>
      <stop offset="0.80334" stop-color="white" stop-opacity="0.4"></stop>
    </linearGradient></defs>
</svg>